<svg xmlns="http://www.w3.org/2000/svg" viewBox="0 0 32 40" x="0px" y="0px"><g data-name="Layer 51"><path d="M30.071,1.6c-2.455-2.455-9.061-.839-11.4,1.5L17.023,4.938,4.746,6.872A4.752,4.752,0,0,0,1.132,10.03a2.956,2.956,0,0,0,.6,3.117L6.59,18l7.071,7.071,4.862,4.862a2.72,2.72,0,0,0,1.967.791,3.691,3.691,0,0,0,1.144-.191A4.756,4.756,0,0,0,24.8,26.925l1.923-12.278,1.891-1.694a10.993,10.993,0,0,0,2.476-5.506C31.366,5.919,31.6,3.127,30.071,1.6ZM3.033,10.65a2.73,2.73,0,0,1,2.023-1.8L14.912,7.3,7.257,15.843l-4.11-4.11A1.084,1.084,0,0,1,3.033,10.65ZM22.822,26.616a2.739,2.739,0,0,1-1.808,2.02,1.082,1.082,0,0,1-1.077-.113l-4.115-4.115,8.545-7.653Zm6.3-19.527A9.321,9.321,0,0,1,27.238,11.5l-2.033,1.82-.007.007L14.406,22.992,8.674,17.259,20.126,4.468c1.721-1.72,7.109-2.881,8.531-1.459C29.276,3.629,29.458,5.23,29.121,7.089Z"/><path d="M22.505,5.055a10.464,10.464,0,0,0-5.783,5.783c-.66,1.9-.022,2.916.417,3.355a2.511,2.511,0,0,0,1.839.7,4.632,4.632,0,0,0,1.517-.284,10.47,10.47,0,0,0,5.783-5.783c.66-1.9.022-2.917-.417-3.356S24.4,4.395,22.505,5.055ZM24.389,8.17a8.5,8.5,0,0,1-4.551,4.552c-.684.238-1.145.2-1.285.057s-.18-.6.058-1.284a8.505,8.505,0,0,1,4.551-4.552,2.712,2.712,0,0,1,.86-.17.625.625,0,0,1,.425.113C24.586,7.025,24.627,7.486,24.389,8.17Z"/><path d="M11.447,24.105a1,1,0,0,0-1.342.448l-1.7,3.393L7.98,25.8a1,1,0,0,0-1.535-.636L4.605,26.4l1.227-1.84a1,1,0,0,0-.589-1.525l-1.659-.415,2.931-1.758a1,1,0,1,0-1.03-1.714l-5,3A1,1,0,0,0,.757,23.97l2.624.656L.168,29.445a1,1,0,0,0,1.387,1.387L6.312,27.66,7.02,31.2a1,1,0,0,0,1.875.251l3-6A1,1,0,0,0,11.447,24.105Z"/></g><text x="0" y="47" fill="#000000" font-size="5px" font-weight="bold" font-family="'Helvetica Neue', Helvetica, Arial-Unicode, Arial, Sans-serif">Created by Muhammad Ahsanu Nadia</text><text x="0" y="52" fill="#000000" font-size="5px" font-weight="bold" font-family="'Helvetica Neue', Helvetica, Arial-Unicode, Arial, Sans-serif">from the Noun Project</text></svg>